#!OML:ASF E:\emotionWalksFemale\Project 1\Capture day 1\Session 1\Female1.ASF
:FULLY-SPECIFIED
:DEGREES
1704
root 9.7459 15.3682 9.051 361.352 1.12862 -356.762
lowerback 5.96662 -0.342312 -3.11235
upperback -5.07725 -0.790244 -0.260234
thorax -8.67777 -0.203286 1.57703
lowerneck -6.89247 -2.21904 -5.21393
upperneck 4.70337 -2.77839 4.84527
head 2.90915 -1.31443 2.38906
rclavicle 7.1811e-015 -1.59028e-014
rhumerus -47.4019 -2.48141 -80.8312
rradius 33.557
rwrist 17.5468
rhand 3.62535 -54.3877
rfingers 7.12502
rthumb 29.058 -802.141
lclavicle 7.1811e-015 -1.59028e-014
lhumerus -35.7697 -2.85957 82.2096
lradius 45.8422
lwrist -6.87886
lhand -10.344 -34.5293
lfingers 7.12502
lthumb 15.6524 -5.14246
rfemur -31.4919 38.2796 3.55935
rtibia 18.0987
rfoot -44.4367 -47.1133
rtoes 30.9876
lfemur 13.6061 -17.6513 -33.9228
ltibia 10.282
lfoot -20.4644 20.3828
ltoes -14.6568
1705
root 9.73079 15.3624 9.18398 361.482 1.33744 -356.782
lowerback 5.83395 -0.396256 -3.12338
upperback -5.17607 -0.858637 -0.232991
thorax -8.70329 -0.233562 1.61997
lowerneck -6.876 -2.22623 -5.13874
upperneck 4.85776 -2.78737 4.64766
head 2.95191 -1.32464 2.30868
rclavicle -1.09332e-014 3.18055e-015
rhumerus -47.493 -2.45275 -80.8193
rradius 33.4617
rwrist 17.6073
rhand 3.50742 -54.5109
rfingers 7.12502
rthumb 28.9453 -802.284
lclavicle -1.09332e-014 3.18055e-015
lhumerus -36.2261 -3.11607 82.589
lradius 45.8771
lwrist -6.87647
lhand -10.3186 -34.5345
lfingers 7.12502
lthumb 15.6768 -5.14959
rfemur -30.5336 36.2239 4.87865
rtibia 17.9073
rfoot -37.1385 -46.8983
rtoes 23.6634
lfemur 13.8898 -17.2347 -33.7363
ltibia 10.4866
lfoot -20.2827 19.5937
ltoes -14.6292
1706
root 9.71065 15.3599 9.31909 361.522 1.48947 -356.95
lowerback 5.9071 -0.38724 -2.96778
upperback -5.29551 -0.836564 -0.236055
thorax -8.87917 -0.228444 1.52811
lowerneck -6.9219 -2.28008 -4.9666
upperneck 5.1148 -2.86996 4.48164
head 3.04414 -1.3679 2.21815
rclavicle 5.86415e-015 -3.97569e-015
rhumerus -47.6385 -2.62314 -80.8222
rradius 33.3219
rwrist 17.6881
rhand 3.64824 -54.6755
rfingers 7.12502
rthumb 29.0798 -802.425
lclavicle 5.86415e-015 -3.97569e-015
lhumerus -36.8055 -3.47103 82.8838
lradius 45.9275
lwrist -6.94692
lhand -10.0645 -34.5087
lfingers 7.12502
lthumb 15.9215 -5.14316
rfemur -29.3761 33.7445 6.71366
rtibia 17.8992
rfoot -30.0132 -45.3715
rtoes 15.515
lfemur 14.2925 -16.9562 -33.4371
ltibia 10.5988
lfoot -19.9032 19.1763
ltoes -16
1707
root 9.68698 15.3549 9.4563 361.55 1.67263 -357.076
lowerback 5.93254 -0.392532 -2.88871
upperback -5.36315 -0.838352 -0.240832
thorax -8.96875 -0.232377 1.47961
lowerneck -6.96748 -2.3387 -5.01652
upperneck 5.26704 -2.95342 4.58955
head 3.11389 -1.40632 2.26078
rclavicle 4.22417e-016 5.96354e-015
rhumerus -47.6223 -2.7874 -80.8068
rradius 33.0219
rwrist 17.9873
rhand 3.76143 -54.5563
rfingers 7.12502
rthumb 29.1879 -802.288
lclavicle 4.22417e-016 5.96354e-015
lhumerus -37.2682 -3.75332 83.1417
lradius 45.7847
lwrist -7.10373
lhand -9.96274 -34.6189
lfingers 7.12502
lthumb 16.0195 -5.26124
rfemur -28.1768 31.4308 8.42639
rtibia 17.9066
rfoot -26.9251 -42.4135
rtoes 13.491
lfemur 14.6287 -16.8448 -33.2065
ltibia 10.9289
lfoot -19.8927 18.6472
ltoes -15.0094
1708
root 9.66722 15.3491 9.59097 361.699 1.9527 -356.974
lowerback 5.76966 -0.449211 -2.97878
upperback -5.42397 -0.922472 -0.28709
thorax -8.93491 -0.269326 1.49054
lowerneck -7.02734 -2.37477 -5.21864
upperneck 5.35977 -2.9961 4.79124
head 3.17077 -1.42412 2.36542
rclavicle 1.67725e-014 2.98177e-015
rhumerus -47.5673 -2.80979 -80.7949
rradius 32.8184
rwrist 18.2353
rhand 3.56422 -54.4004
rfingers 7.12502
rthumb 28.9996 -802.164
lclavicle 1.67725e-014 2.98177e-015
lhumerus -37.5794 -3.80137 83.3991
lradius 45.4467
lwrist -7.31786
lhand -9.88444 -34.8229
lfingers 7.12502
lthumb 16.0949 -5.47125
rfemur -27.1395 28.9413 9.80356
rtibia 18.0969
rfoot -24.9773 -39.2427
rtoes 13.0697
lfemur 14.8678 -16.7564 -33.1801
ltibia 11.2547
lfoot -19.9168 17.8864
ltoes -12.6182
1709
root 9.62808 15.3416 9.74383 361.597 1.99375 -357.273
lowerback 5.52068 -0.421515 -3.04567
upperback -5.36825 -0.86983 -0.144735
thorax -8.72674 -0.238191 1.66829
lowerneck -7.134 -2.43949 -5.15622
upperneck 5.48738 -3.07827 4.65857
head 3.23442 -1.46735 2.30488
rclavicle 1.81391e-015 -6.75868e-015
rhumerus -47.5757 -2.83012 -80.7511
rradius 32.7028
rwrist 18.344
rhand 3.34096 -54.3604
rfingers 7.12502
rthumb 28.7863 -802.161
lclavicle 1.81391e-015 -6.75868e-015
lhumerus -38.0623 -3.7132 83.6285
lradius 45.3552
lwrist -7.57086
lhand -9.46809 -34.9645
lfingers 7.12502
lthumb 16.4958 -5.64578
rfemur -26.0782 27.4566 11.5783
rtibia 18.5072
rfoot -22.3246 -37.4331
rtoes 9.32716
lfemur 15.4576 -16.3372 -32.6932
ltibia 11.3449
lfoot -19.6977 17.3928
ltoes -14.4925
1710
root 9.59968 15.3383 9.89788 361.433 2.15013 -357.222
lowerback 5.39151 -0.473426 -3.2436
upperback -5.34097 -0.952212 -0.137447
thorax -8.61467 -0.268068 1.79548
lowerneck -7.29057 -2.44156 -5.20688
upperneck 5.77864 -3.07993 4.69736
head 3.36805 -1.46665 2.32941
rclavicle 7.20594e-015 3.97569e-015
rhumerus -47.5996 -2.89606 -80.6532
rradius 32.4657
rwrist 18.6669
rhand 3.46573 -54.352
rfingers 7.12502
rthumb 28.9055 -802.132
lclavicle 7.20594e-015 3.97569e-015
lhumerus -38.8586 -3.51815 83.769
lradius 45.5169
lwrist -7.77187
lhand -8.98713 -34.9583
lfingers 7.12502
lthumb 16.9588 -5.67871
rfemur -25.0002 26.0684 12.7974
rtibia 18.9572
rfoot -19.7637 -35.8482
rtoes 4.71668
lfemur 16.1746 -15.7286 -32.5707
ltibia 11.3097
lfoot -18.9703 17.0305
ltoes -19.6681
1711
root 9.57737 15.3459 10.0501 361.361 2.40657 -357.184
lowerback 5.30717 -0.547178 -3.286
upperback -5.40215 -1.05423 -0.151281
thorax -8.62579 -0.314879 1.81655
lowerneck -7.4003 -2.42953 -5.39565
upperneck 6.06846 -3.06268 4.89355
head 3.50024 -1.45438 2.4353
rclavicle -1.71452e-015 8.54774e-015
rhumerus -47.7527 -3.03704 -80.4688
rradius 32.2913
rwrist 19.2346
rhand 3.66442 -54.1922
rfingers 7.12502
rthumb 29.0953 -801.94
lclavicle -1.71452e-015 8.54774e-015
lhumerus -39.6088 -3.32252 83.9303
lradius 45.3982
lwrist -8.10179
lhand -8.71693 -35.0633
lfingers 7.12502
lthumb 17.2189 -5.80618
rfemur -24.4015 26.187 13.1722
rtibia 19.2693
rfoot -18.7512 -35.2766
rtoes 3.93864
lfemur 16.7324 -15.2424 -32.3834
ltibia 11.3793
lfoot -18.3528 16.5137
ltoes -21.7801
1712
root 9.54975 15.362 10.2026 361.426 2.58385 -357.383
lowerback 5.17191 -0.556852 -3.17992
upperback -5.53396 -1.05034 -0.0948181
thorax -8.69003 -0.314925 1.81522
lowerneck -7.53739 -2.48525 -5.55369
upperneck 6.39108 -3.1336 5.0151
head 3.65242 -1.48776 2.50559
rclavicle -2.21148e-014 4.77083e-015
rhumerus -47.967 -3.17113 -80.3259
rradius 32.1931
rwrist 19.6223
rhand 3.49348 -53.8664
rfingers 7.12502
rthumb 28.932 -801.642
lclavicle -2.21148e-014 4.77083e-015
lhumerus -40.2356 -3.21816 84.1372
lradius 45.0009
lwrist -8.51209
lhand -8.72495 -35.2347
lfingers 7.12502
lthumb 17.2112 -5.97694
rfemur -24.5039 28.4516 12.9147
rtibia 19.5603
rfoot -19.2433 -36.6593
rtoes 6.49875
lfemur 17.136 -14.9331 -31.9064
ltibia 11.4255
lfoot -17.8346 15.746
ltoes -20.4204
1713
root 9.51925 15.3795 10.3598 361.544 2.72661 -357.61
lowerback 4.86228 -0.570522 -3.08077
upperback -5.65796 -1.04712 -0.0542612
thorax -8.64297 -0.317724 1.79812
lowerneck -7.5721 -2.46819 -5.80218
upperneck 6.66469 -3.11844 5.34613
head 3.77194 -1.4735 2.6713
rclavicle -3.47873e-015 -1.98785e-015
rhumerus -48.0846 -3.14149 -80.3738
rradius 31.9736
rwrist 19.6515
rhand 3.37934 -54.0173
rfingers 7.12502
rthumb 28.823 -801.811
lclavicle -3.47873e-015 -1.98785e-015
lhumerus -40.8191 -3.11192 84.2637
lradius 44.517
lwrist -8.72284
lhand -8.72869 -35.1938
lfingers 7.12502
lthumb 17.2076 -5.93565
rfemur -24.6294 31.1315 12.5546
rtibia 19.609
rfoot -19.8413 -38.7428
rtoes 8.98337
lfemur 17.3142 -14.5231 -31.3601
ltibia 11.861
lfoot -17.0378 15.3039
ltoes -21.4026
